<svg width="86" height="46" viewBox="0 0 86 46" fill="none" xmlns="http://www.w3.org/2000/svg">
<path d="M17.112 39.688C17.112 42.632 14.68 45.064 11.736 45.064H5.4C2.456 45.064 0.024 42.632 0.024 39.688V25.288H7.704C7.768 26.888 7.832 38.216 7.96 39.688H9.176L9.368 35.08C9.56 31.496 9.688 27.4 9.688 22.6V5.576H7.704V14.088H0.024V0.199997H17.112V39.688Z" fill="#ED6D48"/>
<path d="M36.49 39.688C36.49 42.632 34.058 45.064 31.114 45.064H24.778C21.834 45.064 19.402 42.632 19.402 39.688V0.199997H26.762V22.6C26.762 29.576 27.018 35.016 27.338 39.688H28.554C28.81 35.016 29.066 29.576 29.066 22.6V0.199997H36.49V39.688ZM57.785 45C58.105 34.184 59.449 24.072 60.473 17.16H59.449C58.105 24.008 56.185 34.248 55.673 45H48.377C47.865 34.248 45.945 24.008 44.601 17.16H43.577C44.601 24.072 45.945 34.184 46.265 45H38.649V0.199997H48.825C49.465 6.408 50.425 14.856 51.513 26.888H52.537C53.625 14.856 54.585 6.408 55.225 0.199997H65.401V45H57.785ZM78.7135 0.199997C81.6575 0.199997 85.1135 2.632 85.1135 5.576V19.912C85.1135 22.856 81.6575 25.288 78.7135 25.288H75.8335V45H68.2175V0.199997H78.7135ZM76.2815 19.912C76.2815 19.912 77.6255 18.248 77.6255 12.744C77.6255 7.24 76.2815 5.576 76.2815 5.576H75.2575C75.2575 5.576 75.5135 7.24 75.5135 12.744C75.5135 18.248 75.2575 19.912 75.2575 19.912H76.2815Z" fill="#5174C7"/>
</svg>
